<svg width="40" height="39" viewBox="0 0 40 39" fill="none" xmlns="http://www.w3.org/2000/svg">
<g filter="url(#filter0_d_36_1463)">
<rect x="4" y="2" width="32" height="31" rx="8" fill="white" shape-rendering="crispEdges"/>
<path d="M20.0001 14.0152L19.4623 13.4748C18.2 12.2061 15.8855 12.6439 15.05 14.2389C14.6577 14.9891 14.5692 16.0722 15.2855 17.4546C15.9755 18.7855 17.411 20.3798 20.0001 22.1163C22.5892 20.3798 24.024 18.7855 24.7147 17.4546C25.431 16.0715 25.3433 14.9891 24.9503 14.2389C24.1147 12.6439 21.8002 12.2054 20.5379 13.474L20.0001 14.0152ZM20.0001 23C8.5 15.5699 16.4592 9.77071 19.8681 12.8382C19.9131 12.8786 19.9574 12.9204 20.0001 12.9636C20.0424 12.9204 20.0865 12.8788 20.1321 12.839C23.5402 9.76924 31.5002 15.5692 20.0001 23Z" fill="#FE0505"/>
</g>
<defs>
<filter id="filter0_d_36_1463" x="0" y="0" width="40" height="39" filterUnits="userSpaceOnUse" color-interpolation-filters="sRGB">
<feFlood flood-opacity="0" result="BackgroundImageFix"/>
<feColorMatrix in="SourceAlpha" type="matrix" values="0 0 0 0 0 0 0 0 0 0 0 0 0 0 0 0 0 0 127 0" result="hardAlpha"/>
<feOffset dy="2"/>
<feGaussianBlur stdDeviation="2"/>
<feComposite in2="hardAlpha" operator="out"/>
<feColorMatrix type="matrix" values="0 0 0 0 0 0 0 0 0 0 0 0 0 0 0 0 0 0 0.15 0"/>
<feBlend mode="normal" in2="BackgroundImageFix" result="effect1_dropShadow_36_1463"/>
<feBlend mode="normal" in="SourceGraphic" in2="effect1_dropShadow_36_1463" result="shape"/>
</filter>
</defs>
</svg>
