<svg width="48" height="48" viewBox="0 0 48 48" fill="none" xmlns="http://www.w3.org/2000/svg">
<g clip-path="url(#clip0_36_1560)">
<path d="M6 0C4.4087 0 2.88258 0.632141 1.75736 1.75736C0.632141 2.88258 0 4.4087 0 6L0 42C0 43.5913 0.632141 45.1174 1.75736 46.2426C2.88258 47.3679 4.4087 48 6 48H42C43.5913 48 45.1174 47.3679 46.2426 46.2426C47.3679 45.1174 48 43.5913 48 42V6C48 4.4087 47.3679 2.88258 46.2426 1.75736C45.1174 0.632141 43.5913 0 42 0L6 0ZM7.5 15H40.5C40.8978 15 41.2794 15.158 41.5607 15.4393C41.842 15.7206 42 16.1022 42 16.5C42 16.8978 41.842 17.2794 41.5607 17.5607C41.2794 17.842 40.8978 18 40.5 18H7.5C7.10218 18 6.72064 17.842 6.43934 17.5607C6.15804 17.2794 6 16.8978 6 16.5C6 16.1022 6.15804 15.7206 6.43934 15.4393C6.72064 15.158 7.10218 15 7.5 15ZM12 25.5C12 25.1022 12.158 24.7206 12.4393 24.4393C12.7206 24.158 13.1022 24 13.5 24H34.5C34.8978 24 35.2794 24.158 35.5607 24.4393C35.842 24.7206 36 25.1022 36 25.5C36 25.8978 35.842 26.2794 35.5607 26.5607C35.2794 26.842 34.8978 27 34.5 27H13.5C13.1022 27 12.7206 26.842 12.4393 26.5607C12.158 26.2794 12 25.8978 12 25.5ZM18 34.5C18 34.1022 18.158 33.7206 18.4393 33.4393C18.7206 33.158 19.1022 33 19.5 33H28.5C28.8978 33 29.2794 33.158 29.5607 33.4393C29.842 33.7206 30 34.1022 30 34.5C30 34.8978 29.842 35.2794 29.5607 35.5607C29.2794 35.842 28.8978 36 28.5 36H19.5C19.1022 36 18.7206 35.842 18.4393 35.5607C18.158 35.2794 18 34.8978 18 34.5Z" fill="#D9D9D9"/>
</g>
<defs>
<clipPath id="clip0_36_1560">
<rect width="48" height="48" fill="white"/>
</clipPath>
</defs>
</svg>
